<mxfile host="Electron" modified="2023-09-22T09:27:29.739Z" agent="Mozilla/5.0 (Windows NT 10.0; Win64; x64) AppleWebKit/537.36 (KHTML, like Gecko) draw.io/21.7.5 Chrome/114.0.5735.289 Electron/25.8.1 Safari/537.36" etag="-_W_-j5aMkN8zMO4gh09" version="21.7.5" type="device">
  <diagram name="Страница — 1" id="2GaZIY0xn27ctpKgqx-A">
    <mxGraphModel dx="1005" dy="681" grid="1" gridSize="10" guides="1" tooltips="1" connect="1" arrows="1" fold="1" page="1" pageScale="1" pageWidth="827" pageHeight="1169" math="0" shadow="0">
      <root>
        <mxCell id="0" />
        <mxCell id="1" parent="0" />
        <mxCell id="_NTmYN65szDai1d6A9IO-5" value="" style="edgeStyle=orthogonalEdgeStyle;rounded=0;orthogonalLoop=1;jettySize=auto;html=1;" edge="1" parent="1" source="_NTmYN65szDai1d6A9IO-3" target="_NTmYN65szDai1d6A9IO-4">
          <mxGeometry relative="1" as="geometry" />
        </mxCell>
        <mxCell id="_NTmYN65szDai1d6A9IO-3" value="Начало" style="ellipse;whiteSpace=wrap;html=1;fillColor=#dae8fc;strokeColor=#6c8ebf;" vertex="1" parent="1">
          <mxGeometry x="354" y="40" width="120" height="40" as="geometry" />
        </mxCell>
        <mxCell id="_NTmYN65szDai1d6A9IO-7" value="" style="edgeStyle=orthogonalEdgeStyle;rounded=0;orthogonalLoop=1;jettySize=auto;html=1;" edge="1" parent="1" source="_NTmYN65szDai1d6A9IO-4" target="_NTmYN65szDai1d6A9IO-6">
          <mxGeometry relative="1" as="geometry" />
        </mxCell>
        <mxCell id="_NTmYN65szDai1d6A9IO-4" value="Поступление заявки от покупателя" style="rounded=0;whiteSpace=wrap;html=1;fillColor=#d5e8d4;strokeColor=#82b366;" vertex="1" parent="1">
          <mxGeometry x="354" y="120" width="120" height="40" as="geometry" />
        </mxCell>
        <mxCell id="_NTmYN65szDai1d6A9IO-11" style="edgeStyle=orthogonalEdgeStyle;rounded=0;orthogonalLoop=1;jettySize=auto;html=1;exitX=0;exitY=0.5;exitDx=0;exitDy=0;entryX=0.5;entryY=0;entryDx=0;entryDy=0;" edge="1" parent="1" source="_NTmYN65szDai1d6A9IO-6" target="_NTmYN65szDai1d6A9IO-10">
          <mxGeometry relative="1" as="geometry" />
        </mxCell>
        <mxCell id="_NTmYN65szDai1d6A9IO-13" value="Да" style="edgeLabel;html=1;align=center;verticalAlign=middle;resizable=0;points=[];" vertex="1" connectable="0" parent="_NTmYN65szDai1d6A9IO-11">
          <mxGeometry x="0.065" y="1" relative="1" as="geometry">
            <mxPoint as="offset" />
          </mxGeometry>
        </mxCell>
        <mxCell id="_NTmYN65szDai1d6A9IO-12" style="edgeStyle=orthogonalEdgeStyle;rounded=0;orthogonalLoop=1;jettySize=auto;html=1;exitX=1;exitY=0.5;exitDx=0;exitDy=0;entryX=0.5;entryY=0;entryDx=0;entryDy=0;" edge="1" parent="1" source="_NTmYN65szDai1d6A9IO-6" target="_NTmYN65szDai1d6A9IO-9">
          <mxGeometry relative="1" as="geometry" />
        </mxCell>
        <mxCell id="_NTmYN65szDai1d6A9IO-14" value="Нет" style="edgeLabel;html=1;align=center;verticalAlign=middle;resizable=0;points=[];" vertex="1" connectable="0" parent="_NTmYN65szDai1d6A9IO-12">
          <mxGeometry x="0.261" y="4" relative="1" as="geometry">
            <mxPoint as="offset" />
          </mxGeometry>
        </mxCell>
        <mxCell id="_NTmYN65szDai1d6A9IO-6" value="Доставка срочная?" style="rhombus;whiteSpace=wrap;html=1;fillColor=#ffe6cc;strokeColor=#d79b00;" vertex="1" parent="1">
          <mxGeometry x="374" y="200" width="80" height="80" as="geometry" />
        </mxCell>
        <mxCell id="_NTmYN65szDai1d6A9IO-20" style="edgeStyle=orthogonalEdgeStyle;rounded=0;orthogonalLoop=1;jettySize=auto;html=1;exitX=0.5;exitY=1;exitDx=0;exitDy=0;entryX=0.5;entryY=0;entryDx=0;entryDy=0;" edge="1" parent="1" source="_NTmYN65szDai1d6A9IO-9" target="_NTmYN65szDai1d6A9IO-15">
          <mxGeometry relative="1" as="geometry">
            <Array as="points">
              <mxPoint x="580" y="515" />
              <mxPoint x="414" y="515" />
            </Array>
          </mxGeometry>
        </mxCell>
        <mxCell id="_NTmYN65szDai1d6A9IO-9" value="Определение стоимости доставки" style="rounded=0;whiteSpace=wrap;html=1;fillColor=#d5e8d4;strokeColor=#82b366;" vertex="1" parent="1">
          <mxGeometry x="520" y="280" width="120" height="60" as="geometry" />
        </mxCell>
        <mxCell id="_NTmYN65szDai1d6A9IO-17" value="" style="edgeStyle=orthogonalEdgeStyle;rounded=0;orthogonalLoop=1;jettySize=auto;html=1;" edge="1" parent="1" source="_NTmYN65szDai1d6A9IO-10" target="_NTmYN65szDai1d6A9IO-16">
          <mxGeometry relative="1" as="geometry" />
        </mxCell>
        <mxCell id="_NTmYN65szDai1d6A9IO-10" value="Уточнение возможности срочной доставки" style="rounded=0;whiteSpace=wrap;html=1;fillColor=#d5e8d4;strokeColor=#82b366;" vertex="1" parent="1">
          <mxGeometry x="190" y="280" width="120" height="60" as="geometry" />
        </mxCell>
        <mxCell id="_NTmYN65szDai1d6A9IO-23" value="" style="edgeStyle=orthogonalEdgeStyle;rounded=0;orthogonalLoop=1;jettySize=auto;html=1;" edge="1" parent="1" source="_NTmYN65szDai1d6A9IO-15" target="_NTmYN65szDai1d6A9IO-19">
          <mxGeometry relative="1" as="geometry" />
        </mxCell>
        <mxCell id="_NTmYN65szDai1d6A9IO-15" value="Согласование стоимости и даты доставки" style="rounded=0;whiteSpace=wrap;html=1;fillColor=#d5e8d4;strokeColor=#82b366;" vertex="1" parent="1">
          <mxGeometry x="354" y="580" width="120" height="60" as="geometry" />
        </mxCell>
        <mxCell id="_NTmYN65szDai1d6A9IO-21" value="Да" style="edgeStyle=orthogonalEdgeStyle;rounded=0;orthogonalLoop=1;jettySize=auto;html=1;exitX=0.5;exitY=1;exitDx=0;exitDy=0;entryX=0.5;entryY=0;entryDx=0;entryDy=0;" edge="1" parent="1" source="_NTmYN65szDai1d6A9IO-16" target="_NTmYN65szDai1d6A9IO-15">
          <mxGeometry relative="1" as="geometry">
            <mxPoint x="420" y="580" as="targetPoint" />
            <Array as="points">
              <mxPoint x="250" y="515" />
              <mxPoint x="414" y="515" />
            </Array>
          </mxGeometry>
        </mxCell>
        <mxCell id="_NTmYN65szDai1d6A9IO-22" value="Нет" style="edgeStyle=orthogonalEdgeStyle;rounded=0;orthogonalLoop=1;jettySize=auto;html=1;exitX=1;exitY=0.5;exitDx=0;exitDy=0;entryX=0;entryY=0.5;entryDx=0;entryDy=0;" edge="1" parent="1" source="_NTmYN65szDai1d6A9IO-16" target="_NTmYN65szDai1d6A9IO-9">
          <mxGeometry relative="1" as="geometry" />
        </mxCell>
        <mxCell id="_NTmYN65szDai1d6A9IO-16" value="&amp;nbsp;Возможна ли срочная доставка?" style="rhombus;whiteSpace=wrap;html=1;fillColor=#ffe6cc;strokeColor=#d79b00;" vertex="1" parent="1">
          <mxGeometry x="210" y="370" width="80" height="80" as="geometry" />
        </mxCell>
        <mxCell id="_NTmYN65szDai1d6A9IO-19" value="Конец" style="ellipse;whiteSpace=wrap;html=1;fillColor=#dae8fc;strokeColor=#6c8ebf;" vertex="1" parent="1">
          <mxGeometry x="354" y="670" width="120" height="40" as="geometry" />
        </mxCell>
      </root>
    </mxGraphModel>
  </diagram>
</mxfile>
